<svg viewBox="326.6167 226.8849 363.0792 128.2302" width="5000" height="1765.8709174196704" xmlns="http://www.w3.org/2000/svg" xmlns:xlink="http://www.w3.org/1999/xlink" preserveAspectRatio="none"><defs></defs><style>.aD6z1nYkhcolor {fill:#270949;fill-opacity:1;}.afRwYHFRVscolors-0 {fill:#4654A3;fill-opacity:1;}.afRwYHFRVscolors-1 {fill:#F95B3D;fill-opacity:1;}.afRwYHFRVscolors-2 {fill:#FEB7C7;fill-opacity:1;}.afRwYHFRVscolors-3 {fill:#270949;fill-opacity:1;}.afRwYHFRVscolors-4 {fill:#6B7ACC;fill-opacity:1;}.afRwYHFRVscolors-5 {fill:#987FC6;fill-opacity:1;}.afRwYHFRVscolors-6 {fill:#BFA0E9;fill-opacity:1;}.afRwYHFRVscolors-7 {fill:#BDBBF1;fill-opacity:1;}.ashadowHblM5owc29-floo {flood-color:#270949;flood-opacity:1;}.icon3-str {stroke:#FEB7C7;stroke-opacity:1;}</style><defs>
      <filter
        x="326.6167"
        y="294.6202"
        width="363.0792"
        height="60.4949"
        id="JPPx1dkxw"
        filterUnits="userSpaceOnUse"
        primitiveUnits="userSpaceOnUse"
        color-interpolation-filters="sRGB">
        <feMerge><feMergeNode in="SourceGraphic" /></feMerge>
      </filter>
      <filter
        x="326.6167"
        y="226.8849"
        width="363.0792"
        height="128.2302"
        id="global"
        filterUnits="userSpaceOnUse"
        primitiveUnits="userSpaceOnUse"
        color-interpolation-filters="sRGB">
        <feColorMatrix
                        type="matrix"
                        values="0.3333 0.3333 0.3333 0 0 0.3333 0.3333 0.3333 0 0 0.3333 0.3333 0.3333 0 0 0 0 0 1 0"/>
      </filter></defs><g filter="url(#global)"><g opacity="1" transform="rotate(0 326.6167 294.6202)">
<svg width="363.0792" height="60.4949" x="326.6167" y="294.6202" version="1.1" preserveAspectRatio="none" viewBox="3.28 -21.6 131.32 21.88">
  <g transform="matrix(1 0 0 1 0 0)" class="aD6z1nYkhcolor"><path id="id-D6z1nYkh6" d="M8.04-18.24Q10.20-21.60 15.64-21.60L15.64-21.60L15.64-16.84Q15-16.96 14.48-16.96L14.48-16.96Q11.56-16.96 9.92-15.26Q8.28-13.56 8.28-10.36L8.28-10.36L8.28 0L3.28 0L3.28-21.36L8.04-21.36L8.04-18.24Z M29.84-3.96Q33.32-3.96 35.64-6.28L35.64-6.28L38.28-3.20Q36.88-1.48 34.68-0.60Q32.48 0.28 29.72 0.28L29.72 0.28Q26.20 0.28 23.52-1.12Q20.84-2.52 19.38-5.02Q17.92-7.52 17.92-10.68L17.92-10.68Q17.92-13.80 19.34-16.30Q20.76-18.80 23.26-20.20Q25.76-21.60 28.92-21.60L28.92-21.60Q31.92-21.60 34.38-20.30Q36.84-19 38.28-16.58Q39.72-14.16 39.72-10.92L39.72-10.92L23.36-7.72Q24.12-5.88 25.80-4.92Q27.48-3.96 29.84-3.96L29.84-3.96ZM28.92-17.60Q26.16-17.60 24.46-15.80Q22.76-14 22.76-10.96L22.76-10.96L22.76-10.92L34.84-13.24Q34.32-15.20 32.74-16.40Q31.16-17.60 28.92-17.60L28.92-17.60Z M56.64-21.60Q60.68-21.60 63.12-19.24Q65.56-16.88 65.56-12.24L65.56-12.24L65.56 0L60.56 0L60.56-11.60Q60.56-14.40 59.24-15.82Q57.92-17.24 55.48-17.24L55.48-17.24Q52.72-17.24 51.12-15.58Q49.52-13.92 49.52-10.80L49.52-10.80L49.52 0L44.52 0L44.52-21.36L49.28-21.36L49.28-18.60Q50.52-20.08 52.40-20.84Q54.28-21.60 56.64-21.60L56.64-21.60Z M81.72 0.28Q78.48 0.28 75.88-1.12Q73.28-2.52 71.82-5.02Q70.36-7.52 70.36-10.68L70.36-10.68Q70.36-13.84 71.82-16.32Q73.28-18.80 75.88-20.20Q78.48-21.60 81.72-21.60L81.72-21.60Q85-21.60 87.60-20.20Q90.20-18.80 91.66-16.32Q93.12-13.84 93.12-10.68L93.12-10.68Q93.12-7.52 91.66-5.02Q90.20-2.52 87.60-1.12Q85 0.28 81.72 0.28L81.72 0.28ZM81.72-4Q84.48-4 86.28-5.84Q88.08-7.68 88.08-10.68L88.08-10.68Q88.08-13.68 86.28-15.52Q84.48-17.36 81.72-17.36L81.72-17.36Q78.96-17.36 77.18-15.52Q75.40-13.68 75.40-10.68L75.40-10.68Q75.40-7.68 77.18-5.84Q78.96-4 81.72-4L81.72-4Z M97.24-9.04L97.24-13.20L108.24-13.20L108.24-9.04L97.24-9.04Z M129.60-21.36L134.60-21.36L134.60 0L129.84 0L129.84-2.76Q128.60-1.24 126.78-0.48Q124.96 0.28 122.76 0.28L122.76 0.28Q119.64 0.28 117.18-1.08Q114.72-2.44 113.34-4.92Q111.96-7.40 111.96-10.68L111.96-10.68Q111.96-13.96 113.34-16.42Q114.72-18.88 117.18-20.24Q119.64-21.60 122.76-21.60L122.76-21.60Q124.84-21.60 126.58-20.88Q128.32-20.16 129.60-18.76L129.60-18.76L129.60-21.36ZM123.32-4Q126.08-4 127.88-5.84Q129.68-7.68 129.68-10.68L129.68-10.68Q129.68-13.68 127.88-15.52Q126.08-17.36 123.32-17.36L123.32-17.36Q120.56-17.36 118.78-15.52Q117.00-13.68 117.00-10.68L117.00-10.68Q117.00-7.68 118.78-5.84Q120.56-4 123.32-4L123.32-4Z"/></g>
</svg>
</g><g opacity="1" transform="rotate(-44.6 537.6351 290.5524)">
<svg width="90.6747" height="90.6747" x="537.6351" y="290.5524" version="1.1" preserveAspectRatio="none" viewBox="20 20 160 160">
  <g transform="matrix(1 0 0 1 0 0)" ><g><path d="M135.5 20v44.5H180L135.5 20z" data-color="1" class="afRwYHFRVscolors-0"></path><path d="M53.2 89.9L20 56.7V180h123.3l-33.2-33.2H53.2V89.9z" data-color="2" class="afRwYHFRVscolors-1"></path><path d="M53.2 23.6V90l56.9 56.9h66.4L53.2 23.6z" data-color="1" class="afRwYHFRVscolors-0"></path><path d="M53.2 146.8h56.9L53.2 89.9v56.9z" data-color="3" class="afRwYHFRVscolors-2"></path></g></g>
</svg>
</g></g></svg>